<svg xmlns="http://www.w3.org/2000/svg" xmlns:xlink="http://www.w3.org/1999/xlink" width="200" zoomAndPan="magnify" viewBox="0 0 150 149.999998" height="200" preserveAspectRatio="xMidYMid meet" version="1.0"><defs><g/></defs><g fill="#000000" fill-opacity="1"><g transform="translate(7.530273, 94.339881)"><g><path d="M 17.203125 0.9375 C 15.429688 0.9375 13.613281 0.675781 11.75 0.15625 C 9.882812 -0.363281 8.039062 -0.625 6.21875 -0.625 C 4.613281 -0.625 3.113281 -0.257812 1.71875 0.46875 L 1.640625 -0.15625 C 2.097656 -0.675781 2.546875 -1.390625 2.984375 -2.296875 C 3.429688 -3.203125 3.8125 -4.1875 4.125 -5.25 C 4.4375 -6.3125 4.679688 -7.382812 4.859375 -8.46875 C 5.046875 -9.5625 5.113281 -10.578125 5.0625 -11.515625 L 5.609375 -11.671875 C 5.859375 -9.703125 6.347656 -7.988281 7.078125 -6.53125 C 7.804688 -5.082031 8.660156 -3.863281 9.640625 -2.875 C 10.628906 -1.894531 11.679688 -1.171875 12.796875 -0.703125 C 13.910156 -0.234375 14.988281 0 16.03125 0 C 17.375 0 18.515625 -0.410156 19.453125 -1.234375 C 20.390625 -2.066406 20.859375 -3.316406 20.859375 -4.984375 C 20.859375 -6.273438 20.441406 -7.476562 19.609375 -8.59375 C 18.773438 -9.707031 17.734375 -10.820312 16.484375 -11.9375 C 15.242188 -13.050781 13.910156 -14.15625 12.484375 -15.25 C 11.054688 -16.34375 9.71875 -17.472656 8.46875 -18.640625 C 7.226562 -19.804688 6.191406 -21.050781 5.359375 -22.375 C 4.535156 -23.695312 4.125 -25.109375 4.125 -26.609375 C 4.125 -28.066406 4.457031 -29.285156 5.125 -30.265625 C 5.800781 -31.253906 6.671875 -32.046875 7.734375 -32.640625 C 8.804688 -33.234375 9.988281 -33.660156 11.28125 -33.921875 C 12.582031 -34.179688 13.828125 -34.3125 15.015625 -34.3125 C 16.210938 -34.3125 17.597656 -34.164062 19.171875 -33.875 C 20.753906 -33.59375 22.300781 -33.453125 23.8125 -33.453125 C 25 -33.453125 26.007812 -33.609375 26.84375 -33.921875 L 27.15625 -33.453125 C 26.738281 -32.992188 26.382812 -32.375 26.09375 -31.59375 C 25.8125 -30.8125 25.59375 -29.976562 25.4375 -29.09375 C 25.289062 -28.21875 25.164062 -27.3125 25.0625 -26.375 C 24.957031 -25.445312 24.90625 -24.566406 24.90625 -23.734375 L 24.359375 -23.734375 C 24.203125 -25.441406 23.835938 -26.90625 23.265625 -28.125 C 22.691406 -29.34375 22.015625 -30.351562 21.234375 -31.15625 C 20.460938 -31.96875 19.625 -32.550781 18.71875 -32.90625 C 17.8125 -33.269531 16.941406 -33.453125 16.109375 -33.453125 C 14.960938 -33.453125 14 -33.128906 13.21875 -32.484375 C 12.445312 -31.835938 12.0625 -30.914062 12.0625 -29.71875 C 12.0625 -28.632812 12.472656 -27.546875 13.296875 -26.453125 C 14.128906 -25.367188 15.164062 -24.289062 16.40625 -23.21875 C 17.65625 -22.15625 19.019531 -21.066406 20.5 -19.953125 C 21.976562 -18.835938 23.335938 -17.671875 24.578125 -16.453125 C 25.828125 -15.234375 26.867188 -13.945312 27.703125 -12.59375 C 28.535156 -11.25 28.953125 -9.828125 28.953125 -8.328125 C 28.953125 -6.816406 28.585938 -5.476562 27.859375 -4.3125 C 27.128906 -3.144531 26.207031 -2.171875 25.09375 -1.390625 C 23.976562 -0.617188 22.71875 -0.0390625 21.3125 0.34375 C 19.914062 0.738281 18.546875 0.9375 17.203125 0.9375 Z M 17.203125 0.9375 "/></g></g></g><g fill="#000000" fill-opacity="1"><g transform="translate(35.23222, 94.339881)"><g><path d="M 21.390625 0.78125 C 18.078125 0.78125 15.1875 0.273438 12.71875 -0.734375 C 10.257812 -1.742188 8.210938 -3.066406 6.578125 -4.703125 C 4.941406 -6.335938 3.707031 -8.21875 2.875 -10.34375 C 2.050781 -12.476562 1.640625 -14.632812 1.640625 -16.8125 C 1.640625 -19.769531 2.222656 -22.335938 3.390625 -24.515625 C 4.554688 -26.691406 6.054688 -28.503906 7.890625 -29.953125 C 9.734375 -31.410156 11.785156 -32.5 14.046875 -33.21875 C 16.304688 -33.945312 18.550781 -34.3125 20.78125 -34.3125 C 22.644531 -34.3125 24.351562 -34.078125 25.90625 -33.609375 C 27.46875 -33.148438 28.804688 -32.515625 29.921875 -31.703125 C 31.035156 -30.898438 31.914062 -29.96875 32.5625 -28.90625 C 33.207031 -27.84375 33.53125 -26.710938 33.53125 -25.515625 C 33.53125 -23.804688 33.085938 -22.351562 32.203125 -21.15625 C 31.328125 -19.96875 30.238281 -18.945312 28.9375 -18.09375 C 27.644531 -17.238281 26.21875 -16.457031 24.65625 -15.75 C 23.101562 -15.050781 21.675781 -14.3125 20.375 -13.53125 C 19.082031 -12.757812 17.992188 -11.851562 17.109375 -10.8125 C 16.234375 -9.78125 15.796875 -8.507812 15.796875 -7 C 15.796875 -5.445312 16.15625 -4.070312 16.875 -2.875 C 17.601562 -1.6875 18.203125 -0.910156 18.671875 -0.546875 C 19.453125 -0.179688 20.359375 0 21.390625 0 C 22.691406 0 23.875 -0.296875 24.9375 -0.890625 C 26 -1.492188 26.929688 -2.273438 27.734375 -3.234375 C 28.546875 -4.191406 29.195312 -5.238281 29.6875 -6.375 C 30.175781 -7.519531 30.472656 -8.632812 30.578125 -9.71875 L 31.125 -9.71875 C 31.226562 -8.0625 31.4375 -6.285156 31.75 -4.390625 C 32.0625 -2.503906 32.628906 -1.039062 33.453125 0 L 33.140625 0.46875 C 32.679688 0.257812 32.175781 0.128906 31.625 0.078125 C 31.082031 0.0234375 30.523438 0 29.953125 0 C 28.503906 0 27.015625 0.128906 25.484375 0.390625 C 23.953125 0.648438 22.585938 0.78125 21.390625 0.78125 Z M 16.8125 -1.640625 C 16.238281 -2.410156 15.796875 -3.289062 15.484375 -4.28125 C 15.171875 -5.269531 15.015625 -6.203125 15.015625 -7.078125 C 15.015625 -8.273438 15.273438 -9.328125 15.796875 -10.234375 C 16.316406 -11.140625 16.976562 -12.019531 17.78125 -12.875 C 18.582031 -13.726562 19.4375 -14.582031 20.34375 -15.4375 C 21.25 -16.300781 22.101562 -17.273438 22.90625 -18.359375 C 23.71875 -19.453125 24.378906 -20.710938 24.890625 -22.140625 C 25.410156 -23.566406 25.671875 -25.238281 25.671875 -27.15625 C 25.671875 -28.914062 25.320312 -30.414062 24.625 -31.65625 C 23.925781 -32.90625 22.722656 -33.53125 21.015625 -33.53125 C 19.972656 -33.53125 18.878906 -33.164062 17.734375 -32.4375 C 16.597656 -31.71875 15.5625 -30.65625 14.625 -29.25 C 13.695312 -27.851562 12.921875 -26.128906 12.296875 -24.078125 C 11.671875 -22.035156 11.359375 -19.691406 11.359375 -17.046875 C 11.359375 -15.484375 11.472656 -13.921875 11.703125 -12.359375 C 11.941406 -10.804688 12.28125 -9.351562 12.71875 -8 C 13.164062 -6.65625 13.722656 -5.4375 14.390625 -4.34375 C 15.066406 -3.257812 15.875 -2.359375 16.8125 -1.640625 Z M 16.8125 -1.640625 "/></g></g></g><g fill="#000000" fill-opacity="1"><g transform="translate(67.447426, 94.339881)"><g><path d="M 21.390625 0.78125 C 16.984375 0.78125 13.3125 -0.0859375 10.375 -1.828125 C 7.445312 -3.566406 5.242188 -5.734375 3.765625 -8.328125 C 2.296875 -10.921875 1.5625 -13.734375 1.5625 -16.765625 C 1.5625 -19.804688 2.296875 -22.625 3.765625 -25.21875 C 5.242188 -27.8125 7.445312 -29.972656 10.375 -31.703125 C 13.3125 -33.441406 16.984375 -34.3125 21.390625 -34.3125 C 22.585938 -34.3125 23.953125 -34.179688 25.484375 -33.921875 C 27.015625 -33.660156 28.503906 -33.53125 29.953125 -33.53125 C 30.523438 -33.53125 31.082031 -33.554688 31.625 -33.609375 C 32.175781 -33.660156 32.679688 -33.789062 33.140625 -34 L 33.453125 -33.53125 C 33.046875 -33.070312 32.695312 -32.453125 32.40625 -31.671875 C 32.125 -30.890625 31.890625 -30.054688 31.703125 -29.171875 C 31.523438 -28.296875 31.394531 -27.390625 31.3125 -26.453125 C 31.238281 -25.523438 31.175781 -24.644531 31.125 -23.8125 L 30.578125 -23.8125 C 30.472656 -24.894531 30.175781 -26.007812 29.6875 -27.15625 C 29.195312 -28.300781 28.546875 -29.351562 27.734375 -30.3125 C 26.929688 -31.269531 26 -32.046875 24.9375 -32.640625 C 23.875 -33.234375 22.691406 -33.53125 21.390625 -33.53125 C 19.160156 -33.53125 17.296875 -32.703125 15.796875 -31.046875 C 14.296875 -29.390625 13.164062 -27.316406 12.40625 -24.828125 C 11.65625 -22.335938 11.28125 -19.648438 11.28125 -16.765625 C 11.28125 -13.890625 11.65625 -11.207031 12.40625 -8.71875 C 13.164062 -6.226562 14.296875 -4.148438 15.796875 -2.484375 C 17.296875 -0.828125 19.160156 0 21.390625 0 C 22.691406 0 23.875 -0.296875 24.9375 -0.890625 C 26 -1.492188 26.929688 -2.273438 27.734375 -3.234375 C 28.546875 -4.191406 29.195312 -5.238281 29.6875 -6.375 C 30.175781 -7.519531 30.472656 -8.632812 30.578125 -9.71875 L 31.125 -9.71875 C 31.226562 -8.0625 31.4375 -6.285156 31.75 -4.390625 C 32.0625 -2.503906 32.628906 -1.039062 33.453125 0 L 33.140625 0.46875 C 32.679688 0.257812 32.175781 0.128906 31.625 0.078125 C 31.082031 0.0234375 30.523438 0 29.953125 0 C 28.503906 0 27.015625 0.128906 25.484375 0.390625 C 23.953125 0.648438 22.585938 0.78125 21.390625 0.78125 Z M 21.390625 0.78125 "/></g></g></g><g fill="#000000" fill-opacity="1"><g transform="translate(99.662633, 94.339881)"><g><path d="M 21.390625 -34.3125 C 25.804688 -34.3125 29.476562 -33.441406 32.40625 -31.703125 C 35.34375 -29.972656 37.546875 -27.8125 39.015625 -25.21875 C 40.492188 -22.625 41.234375 -19.804688 41.234375 -16.765625 C 41.234375 -13.734375 40.492188 -10.921875 39.015625 -8.328125 C 37.546875 -5.734375 35.34375 -3.566406 32.40625 -1.828125 C 29.476562 -0.0859375 25.804688 0.78125 21.390625 0.78125 C 16.984375 0.78125 13.3125 -0.0859375 10.375 -1.828125 C 7.445312 -3.566406 5.242188 -5.734375 3.765625 -8.328125 C 2.296875 -10.921875 1.5625 -13.734375 1.5625 -16.765625 C 1.5625 -19.804688 2.296875 -22.625 3.765625 -25.21875 C 5.242188 -27.8125 7.445312 -29.972656 10.375 -31.703125 C 13.3125 -33.441406 16.984375 -34.3125 21.390625 -34.3125 Z M 21.390625 0 C 23.628906 0 25.5 -0.828125 27 -2.484375 C 28.5 -4.148438 29.625 -6.226562 30.375 -8.71875 C 31.132812 -11.207031 31.515625 -13.890625 31.515625 -16.765625 C 31.515625 -19.648438 31.132812 -22.335938 30.375 -24.828125 C 29.625 -27.316406 28.5 -29.390625 27 -31.046875 C 25.5 -32.703125 23.628906 -33.53125 21.390625 -33.53125 C 19.160156 -33.53125 17.296875 -32.703125 15.796875 -31.046875 C 14.296875 -29.390625 13.164062 -27.316406 12.40625 -24.828125 C 11.65625 -22.335938 11.28125 -19.648438 11.28125 -16.765625 C 11.28125 -13.890625 11.65625 -11.207031 12.40625 -8.71875 C 13.164062 -6.226562 14.296875 -4.148438 15.796875 -2.484375 C 17.296875 -0.828125 19.160156 0 21.390625 0 Z M 21.390625 0 "/></g></g></g></svg>